<svg aria-roledescription="er" role="graphics-document document" viewBox="0 0 157.7818603515625 410.03125" height="410.03125" xmlns="http://www.w3.org/2000/svg" width="157.7818603515625" id="tmpMermaidElement"><style>#tmpMermaidElement {background: white;}#tmpMermaidElement{font-family:"trebuchet ms",verdana,arial,sans-serif;font-size:16px;fill:#333;}#tmpMermaidElement .error-icon{fill:#552222;}#tmpMermaidElement .error-text{fill:#552222;stroke:#552222;}#tmpMermaidElement .edge-thickness-normal{stroke-width:2px;}#tmpMermaidElement .edge-thickness-thick{stroke-width:3.5px;}#tmpMermaidElement .edge-pattern-solid{stroke-dasharray:0;}#tmpMermaidElement .edge-pattern-dashed{stroke-dasharray:3;}#tmpMermaidElement .edge-pattern-dotted{stroke-dasharray:2;}#tmpMermaidElement .marker{fill:#333333;stroke:#333333;}#tmpMermaidElement .marker.cross{stroke:#333333;}#tmpMermaidElement svg{font-family:"trebuchet ms",verdana,arial,sans-serif;font-size:16px;}#tmpMermaidElement .entityBox{fill:#ECECFF;stroke:#9370DB;}#tmpMermaidElement .attributeBoxOdd{fill:#ffffff;stroke:#9370DB;}#tmpMermaidElement .attributeBoxEven{fill:#f2f2f2;stroke:#9370DB;}#tmpMermaidElement .relationshipLabelBox{fill:hsl(80, 100%, 96.2745098039%);opacity:0.7;background-color:hsl(80, 100%, 96.2745098039%);}#tmpMermaidElement .relationshipLabelBox rect{opacity:0.5;}#tmpMermaidElement .relationshipLine{stroke:#333333;}#tmpMermaidElement .entityTitleText{text-anchor:middle;font-size:18px;fill:#333;}#tmpMermaidElement :root{--mermaid-font-family:"trebuchet ms",verdana,arial,sans-serif;}</style><g></g><defs><marker orient="auto" markerHeight="18" markerWidth="18" refY="9" refX="0" id="ONLY_ONE_START"><path d="M9,0 L9,18 M15,0 L15,18" fill="none" stroke="gray"></path></marker></defs><defs><marker orient="auto" markerHeight="18" markerWidth="18" refY="9" refX="18" id="ONLY_ONE_END"><path d="M3,0 L3,18 M9,0 L9,18" fill="none" stroke="gray"></path></marker></defs><defs><marker orient="auto" markerHeight="18" markerWidth="30" refY="9" refX="0" id="ZERO_OR_ONE_START"><circle r="6" cy="9" cx="21" fill="white" stroke="gray"></circle><path d="M9,0 L9,18" fill="none" stroke="gray"></path></marker></defs><defs><marker orient="auto" markerHeight="18" markerWidth="30" refY="9" refX="30" id="ZERO_OR_ONE_END"><circle r="6" cy="9" cx="9" fill="white" stroke="gray"></circle><path d="M21,0 L21,18" fill="none" stroke="gray"></path></marker></defs><defs><marker orient="auto" markerHeight="36" markerWidth="45" refY="18" refX="18" id="ONE_OR_MORE_START"><path d="M0,18 Q 18,0 36,18 Q 18,36 0,18 M42,9 L42,27" fill="none" stroke="gray"></path></marker></defs><defs><marker orient="auto" markerHeight="36" markerWidth="45" refY="18" refX="27" id="ONE_OR_MORE_END"><path d="M3,9 L3,27 M9,18 Q27,0 45,18 Q27,36 9,18" fill="none" stroke="gray"></path></marker></defs><defs><marker orient="auto" markerHeight="36" markerWidth="57" refY="18" refX="18" id="ZERO_OR_MORE_START"><circle r="6" cy="18" cx="48" fill="white" stroke="gray"></circle><path d="M0,18 Q18,0 36,18 Q18,36 0,18" fill="none" stroke="gray"></path></marker></defs><defs><marker orient="auto" markerHeight="36" markerWidth="57" refY="18" refX="39" id="ZERO_OR_MORE_END"><circle r="6" cy="18" cx="9" fill="white" stroke="gray"></circle><path d="M21,18 Q39,0 57,18 Q39,36 21,18" fill="none" stroke="gray"></path></marker></defs><path style="stroke: gray; fill: none;" marker-start="url(#ONLY_ONE_START)" marker-end="url(#ZERO_OR_MORE_END)" d="M78.891,143.016L78.891,151.349C78.891,159.682,78.891,176.349,78.891,193.016C78.891,209.682,78.891,226.349,78.891,234.682L78.891,243.016" class="er relationshipLine"></path><g transform="translate(20,20 )" id="entity-User-818c511a-4a32-5484-ba70-875d765a9175"><rect height="123.015625" width="117.7818603515625" y="0" x="0" class="er entityBox"></rect><text style="dominant-baseline: middle; text-anchor: middle; font-size: 12px;" transform="translate(58.89093017578125,13.5078125)" y="0" x="0" id="text-entity-User-818c511a-4a32-5484-ba70-875d765a9175" class="er entityLabel">User</text><rect height="24" width="80.3125" y="27.015625" x="0" class="er attributeBoxOdd"></rect><text style="dominant-baseline: middle; font-size: 10.2px;" transform="translate(5,39.015625)" y="0" x="0" id="text-entity-User-818c511a-4a32-5484-ba70-875d765a9175-attr-1-type" class="er entityLabel">id</text><rect height="24" width="37.4693603515625" y="27.015625" x="80.3125" class="er attributeBoxOdd"></rect><text style="dominant-baseline: middle; font-size: 10.2px;" transform="translate(85.3125,39.015625)" y="0" x="0" id="text-entity-User-818c511a-4a32-5484-ba70-875d765a9175-attr-1-name" class="er entityLabel">int</text><rect height="24" width="80.3125" y="51.015625" x="0" class="er attributeBoxEven"></rect><text style="dominant-baseline: middle; font-size: 10.2px;" transform="translate(5,63.015625)" y="0" x="0" id="text-entity-User-818c511a-4a32-5484-ba70-875d765a9175-attr-2-type" class="er entityLabel">username</text><rect height="24" width="37.4693603515625" y="51.015625" x="80.3125" class="er attributeBoxEven"></rect><text style="dominant-baseline: middle; font-size: 10.2px;" transform="translate(85.3125,63.015625)" y="0" x="0" id="text-entity-User-818c511a-4a32-5484-ba70-875d765a9175-attr-2-name" class="er entityLabel">string</text><rect height="24" width="80.3125" y="75.015625" x="0" class="er attributeBoxOdd"></rect><text style="dominant-baseline: middle; font-size: 10.2px;" transform="translate(5,87.015625)" y="0" x="0" id="text-entity-User-818c511a-4a32-5484-ba70-875d765a9175-attr-3-type" class="er entityLabel">passwordHash</text><rect height="24" width="37.4693603515625" y="75.015625" x="80.3125" class="er attributeBoxOdd"></rect><text style="dominant-baseline: middle; font-size: 10.2px;" transform="translate(85.3125,87.015625)" y="0" x="0" id="text-entity-User-818c511a-4a32-5484-ba70-875d765a9175-attr-3-name" class="er entityLabel">string</text><rect height="24" width="80.3125" y="99.015625" x="0" class="er attributeBoxEven"></rect><text style="dominant-baseline: middle; font-size: 10.2px;" transform="translate(5,111.015625)" y="0" x="0" id="text-entity-User-818c511a-4a32-5484-ba70-875d765a9175-attr-4-type" class="er entityLabel">email</text><rect height="24" width="37.4693603515625" y="99.015625" x="80.3125" class="er attributeBoxEven"></rect><text style="dominant-baseline: middle; font-size: 10.2px;" transform="translate(85.3125,111.015625)" y="0" x="0" id="text-entity-User-818c511a-4a32-5484-ba70-875d765a9175-attr-4-name" class="er entityLabel">string</text></g><g transform="translate(28.89093017578125,243.015625 )" id="entity-Meal-3cfdc5bd-1841-5794-a748-22e76f91e0a2"><rect height="147.015625" width="100" y="0" x="0" class="er entityBox"></rect><text style="dominant-baseline: middle; text-anchor: middle; font-size: 12px;" transform="translate(50,13.5078125)" y="0" x="0" id="text-entity-Meal-3cfdc5bd-1841-5794-a748-22e76f91e0a2" class="er entityLabel">Meal</text><rect height="24" width="46.908355712890625" y="27.015625" x="0" class="er attributeBoxOdd"></rect><text style="dominant-baseline: middle; font-size: 10.2px;" transform="translate(5,39.015625)" y="0" x="0" id="text-entity-Meal-3cfdc5bd-1841-5794-a748-22e76f91e0a2-attr-1-type" class="er entityLabel">id</text><rect height="24" width="53.091644287109375" y="27.015625" x="46.908355712890625" class="er attributeBoxOdd"></rect><text style="dominant-baseline: middle; font-size: 10.2px;" transform="translate(51.908355712890625,39.015625)" y="0" x="0" id="text-entity-Meal-3cfdc5bd-1841-5794-a748-22e76f91e0a2-attr-1-name" class="er entityLabel">int</text><rect height="24" width="46.908355712890625" y="51.015625" x="0" class="er attributeBoxEven"></rect><text style="dominant-baseline: middle; font-size: 10.2px;" transform="translate(5,63.015625)" y="0" x="0" id="text-entity-Meal-3cfdc5bd-1841-5794-a748-22e76f91e0a2-attr-2-type" class="er entityLabel">userId</text><rect height="24" width="53.091644287109375" y="51.015625" x="46.908355712890625" class="er attributeBoxEven"></rect><text style="dominant-baseline: middle; font-size: 10.2px;" transform="translate(51.908355712890625,63.015625)" y="0" x="0" id="text-entity-Meal-3cfdc5bd-1841-5794-a748-22e76f91e0a2-attr-2-name" class="er entityLabel">int</text><rect height="24" width="46.908355712890625" y="75.015625" x="0" class="er attributeBoxOdd"></rect><text style="dominant-baseline: middle; font-size: 10.2px;" transform="translate(5,87.015625)" y="0" x="0" id="text-entity-Meal-3cfdc5bd-1841-5794-a748-22e76f91e0a2-attr-3-type" class="er entityLabel">name</text><rect height="24" width="53.091644287109375" y="75.015625" x="46.908355712890625" class="er attributeBoxOdd"></rect><text style="dominant-baseline: middle; font-size: 10.2px;" transform="translate(51.908355712890625,87.015625)" y="0" x="0" id="text-entity-Meal-3cfdc5bd-1841-5794-a748-22e76f91e0a2-attr-3-name" class="er entityLabel">string</text><rect height="24" width="46.908355712890625" y="99.015625" x="0" class="er attributeBoxEven"></rect><text style="dominant-baseline: middle; font-size: 10.2px;" transform="translate(5,111.015625)" y="0" x="0" id="text-entity-Meal-3cfdc5bd-1841-5794-a748-22e76f91e0a2-attr-4-type" class="er entityLabel">calories</text><rect height="24" width="53.091644287109375" y="99.015625" x="46.908355712890625" class="er attributeBoxEven"></rect><text style="dominant-baseline: middle; font-size: 10.2px;" transform="translate(51.908355712890625,111.015625)" y="0" x="0" id="text-entity-Meal-3cfdc5bd-1841-5794-a748-22e76f91e0a2-attr-4-name" class="er entityLabel">int</text><rect height="24" width="46.908355712890625" y="123.015625" x="0" class="er attributeBoxOdd"></rect><text style="dominant-baseline: middle; font-size: 10.2px;" transform="translate(5,135.015625)" y="0" x="0" id="text-entity-Meal-3cfdc5bd-1841-5794-a748-22e76f91e0a2-attr-5-type" class="er entityLabel">time</text><rect height="24" width="53.091644287109375" y="123.015625" x="46.908355712890625" class="er attributeBoxOdd"></rect><text style="dominant-baseline: middle; font-size: 10.2px;" transform="translate(51.908355712890625,135.015625)" y="0" x="0" id="text-entity-Meal-3cfdc5bd-1841-5794-a748-22e76f91e0a2-attr-5-name" class="er entityLabel">datetime</text></g><rect height="17.015625" width="20.02734375" y="184.50819396972656" x="68.87732696533203" class="er relationshipLabelBox"></rect><text style="text-anchor: middle; dominant-baseline: middle; font-size: 12px;" y="193.01600646972656" x="78.89099884033203" id="rel1" class="er relationshipLabel">has</text></svg>